# xmcd
#
# Track frame offsets:
#	150
#	11723
#	22624
#	35657
#	47035
#	58161
#	68114
#	80240
#	93512
#	106132
#	116457
#	128562
#	141948
#	152172
#	167274
#
# Disc length: 2392 seconds
#
# Revision: 1
# Processed by: cddbd v1.5.1PL0 Copyright (c) Steve Scherf et al.
# Submitted via: audiograbber 1.83.01
#
DISCID=be09560f
DTITLE=Barry Palmer - Saturday's child
DYEAR=2004
DGENRE=Country
TTITLE0=Daddy played the Trumpet
TTITLE1=Saturday's Child
TTITLE2=It Snowed Last Night
TTITLE3=To New Hamshire with Love
TTITLE4=Have I Paid My Dues?
TTITLE5=The Eyes of Jesus Christ
TTITLE6=The Baptism
TTITLE7=White Mountains
TTITLE8=A Smile to Die For
TTITLE9=Look Into Her Eyes
TTITLE10=Press Three
TTITLE11=No Strings
TTITLE12=Comin' Home
TTITLE13=I Can't Get Drunk Enough
TTITLE14=Custody
EXTD=with the Jordanaires.\nWords and music by Barry Palmer\nProduced by Ray Wa
EXTD=lker\nFireswept Records - ESP Productions\n
EXTT0=
EXTT1=
EXTT2=
EXTT3=
EXTT4=
EXTT5=
EXTT6=
EXTT7=
EXTT8=
EXTT9=
EXTT10=
EXTT11=
EXTT12=
EXTT13=
EXTT14=
PLAYORDER=
